<svg width="106" height="60" fill="none" xmlns="http://www.w3.org/2000/svg"><path d="M26.757 44.735c.244.276.373.622.367.977a1.43 1.43 0 01-.131.676 1.556 1.556 0 01-.438.558 2.627 2.627 0 01-1.651.45H22v-6.19h2.844a2.593 2.593 0 011.576.41c.184.142.33.32.425.52.096.201.139.42.127.64.016.34-.1.676-.33.946a1.577 1.577 0 01-.866.484c.385.064.733.252.98.53zm-3.406-.934h1.216c.276.018.55-.055.773-.206a.738.738 0 00.207-.275.68.68 0 00.054-.33.702.702 0 00-.055-.329.76.76 0 00-.203-.276 1.255 1.255 0 00-.796-.209H23.35v1.625zm2.108 2.374a.775.775 0 00.224-.284.711.711 0 00.063-.345.723.723 0 00-.066-.35.788.788 0 00-.228-.285 1.34 1.34 0 00-.826-.224h-1.275v1.703h1.292c.29.015.578-.06.816-.215zm7.111 1.222l-1.581-2.42h-.595v2.42h-1.361v-6.191h2.577a2.698 2.698 0 011.793.526c.36.336.578.779.613 1.248a1.86 1.86 0 01-.421 1.314 2.147 2.147 0 01-1.229.629l1.685 2.474h-1.48zm-2.176-3.264h1.113c.773 0 1.16-.312 1.16-.937a.852.852 0 00-.063-.375.916.916 0 00-.221-.321 1.282 1.282 0 00-.876-.251h-1.126l.013 1.884zm9.616 2.017h-2.712l-.479 1.247h-1.427l2.49-6.122h1.544l2.48 6.122H40.48l-.469-1.246zm-.363-.937l-.991-2.613-.991 2.613h1.982zm9.675 2.184h-1.35l-3.03-4.21v4.21h-1.348v-6.192h1.348l3.03 4.235v-4.235h1.35v6.192zm7.71-1.482a2.81 2.81 0 01-1.222 1.092 4.287 4.287 0 01-1.9.39h-2.404v-6.192h2.405a4.376 4.376 0 011.9.382c.516.238.943.615 1.221 1.08.279.503.424 1.06.424 1.624 0 .564-.145 1.12-.424 1.624zm-1.545-.148c.385-.412.597-.936.597-1.478a2.16 2.16 0 00-.598-1.477 2.489 2.489 0 00-1.69-.527h-.939v4.008h.938a2.488 2.488 0 001.691-.526zm-14.631-39s17.438 6.028 17.068 14.75v14.755S40.5 30.241 40.862 21.518l-.006-14.751zM73.46 32.818c3.294-2.075 7.103-3.36 11.08-3.738v-4.62c-4.582 1.618-8.469 4.55-11.08 8.358z" fill="#AFB1B8"/><path d="M71.481 34.21c2.696-4.97 7.37-8.806 13.059-10.717V10.185s-24.835 8.587-24.31 21.009V52.2s1.107-.384 2.848-1.104c0-.671 0-1.349.079-2.03.514-5.767 3.508-11.11 8.325-14.857z" fill="#AFB1B8"/><path d="M69.12 42.013a20.05 20.05 0 01.868-4.301c-2.998 3.235-4.815 7.25-5.192 11.478-.037.4-.057.799-.067 1.21a74.697 74.697 0 004.777-2.304 19.937 19.937 0 01-.386-6.083zm.987.076a19.058 19.058 0 00.308 5.508c6.785-3.718 14.41-9.462 14.115-16.403v-.605c-4.848.497-9.383 2.437-12.91 5.523a19.256 19.256 0 00-1.513 5.977z" fill="#AFB1B8"/></svg>